<?xml version="1.0" encoding="UTF-8" standalone="no"?>
<!-- Created with Inkscape (http://www.inkscape.org/) -->

<svg
   xmlns:dc="http://purl.org/dc/elements/1.1/"
   xmlns:cc="http://creativecommons.org/ns#"
   xmlns:rdf="http://www.w3.org/1999/02/22-rdf-syntax-ns#"
   xmlns:svg="http://www.w3.org/2000/svg"
   xmlns="http://www.w3.org/2000/svg"
   xmlns:sodipodi="http://sodipodi.sourceforge.net/DTD/sodipodi-0.dtd"
   xmlns:inkscape="http://www.inkscape.org/namespaces/inkscape"
   width="79.013mm"
   height="40.32mm"
   viewBox="0 0 79.013 40.32"
   version="1.1"
   id="svg8"
   inkscape:version="0.92.4 (5da689c313, 2019-01-14)"
   sodipodi:docname="logo.svg">
  <defs
     id="defs2">
    <style
       id="style823">.cls-1{fill:none;}.cls-2{fill:#00a1d9;}</style>
  </defs>
  <sodipodi:namedview
     id="base"
     pagecolor="#ffffff"
     bordercolor="#666666"
     borderopacity="1.0"
     inkscape:pageopacity="0.0"
     inkscape:pageshadow="2"
     inkscape:zoom="1.979899"
     inkscape:cx="223.99127"
     inkscape:cy="44.891091"
     inkscape:document-units="mm"
     inkscape:current-layer="layer1"
     showgrid="false"
     inkscape:window-width="1920"
     inkscape:window-height="1017"
     inkscape:window-x="1912"
     inkscape:window-y="-8"
     inkscape:window-maximized="1" />
  <metadata
     id="metadata5">
    <rdf:RDF>
      <cc:Work
         rdf:about="">
        <dc:format>image/svg+xml</dc:format>
        <dc:type
           rdf:resource="http://purl.org/dc/dcmitype/StillImage" />
        <dc:title></dc:title>
      </cc:Work>
    </rdf:RDF>
  </metadata>
  <g
     inkscape:label="Layer 1"
     inkscape:groupmode="layer"
     id="layer1"
     transform="translate(0,-256.68)">
    <flowRoot
       xml:space="preserve"
       id="flowRoot815"
       style="font-style:normal;font-variant:normal;font-weight:normal;font-stretch:normal;font-size:40px;line-height:1.25;font-family:o;-inkscape-font-specification:o;letter-spacing:0px;word-spacing:0px;fill:#000000;fill-opacity:1;stroke:none"
       transform="scale(0.26458333)"><flowRegion
         id="flowRegion817"
         style="font-style:normal;font-variant:normal;font-weight:normal;font-stretch:normal;font-family:o;-inkscape-font-specification:o"><rect
           id="rect819"
           width="685.71429"
           height="265.71429"
           x="-17.142857"
           y="548.23395"
           style="font-style:normal;font-variant:normal;font-weight:normal;font-stretch:normal;font-family:o;-inkscape-font-specification:o" /></flowRegion><flowPara
         id="flowPara821"></flowPara></flowRoot>    <rect
       id="rect829"
       height="22.079477"
       width="0.23283333"
       y="257.63763"
       x="47.309303"
       class="cls-1"
       style="fill:none;stroke-width:0.26458332" />
    <g
       id="g938"
       transform="translate(-27.765559,235.61016)">
      <path
         style="fill:#00a1d9;stroke-width:0.26458332"
         inkscape:connector-curvature="0"
         class="cls-2"
         d="M 30.721122,27.671027 C 31.080955,27.379986 31.514872,27.020152 32.004351,26.596819 32.184268,26.440715 32.332434,26.305777 32.443559,26.194652 A 1.5610416,1.5610416 0 0 0 32.731955,25.792486 4.8154166,4.8154166 0 0 0 32.967434,25.205111 L 33.290226,24.247319 H 33.25583 A 2.2912916,2.2912916 0 0 1 32.663163,25.086048 8.8608957,8.8608957 0 0 1 31.887934,25.673423 7.2707499,7.2707499 0 0 0 31.043913,26.345465 3.5745208,3.5745208 0 0 0 30.281913,27.403798 V 27.369402 C 30.482997,26.787319 30.636455,26.295194 30.736997,25.893027 30.837538,25.490861 30.927497,25.136319 31.00158,24.834694 A 3.5507083,3.5507083 0 0 1 31.303205,24.040944 2.079625,2.079625 0 0 1 31.893226,23.40859 V 23.374194 A 2.5347083,2.5347083 0 0 0 30.411559,24.448402 3.2596666,3.2596666 0 0 0 29.840059,26.32959 V 28.676444 A 3.7173958,3.7173958 0 0 1 30.721122,27.671027 Z M 32.308622,24.800298 A 11.247437,11.247437 0 0 0 33.163226,23.810756 C 33.427809,23.474736 33.66858,23.157236 33.901413,22.855611 A 5.5562499,5.5562499 0 0 1 34.695163,22.032756 L 34.660768,21.998361 A 1.9023541,1.9023541 0 0 1 33.901413,22.395236 4.2333333,4.2333333 0 0 0 32.946268,22.831798 3.381375,3.381375 0 0 0 31.972601,23.78959 5.9716458,5.9716458 0 0 0 31.178851,25.718402 6.5352083,6.5352083 0 0 0 32.308622,24.800298 Z M 28.543601,33.576527 A 9.855729,9.855729 0 0 0 29.295018,34.566069 7.6570416,7.6570416 0 0 1 30.11258,35.75934 H 30.146976 A 3.3628541,3.3628541 0 0 1 30.104643,35.230173 V 34.751277 A 3.5321875,3.5321875 0 0 1 30.295143,33.862277 C 30.422143,33.449527 30.559726,32.989152 30.692018,32.486444 30.824309,31.983736 30.956601,31.47309 31.054497,30.959798 A 4.4979166,4.4979166 0 0 0 31.141809,29.583965 H 31.099476 A 2.8601458,2.8601458 0 0 1 30.744934,30.438569 L 30.215768,31.311694 A 6.5087499,6.5087499 0 0 0 29.742163,32.285361 3.0744583,3.0744583 0 0 0 29.54108,33.40984 2.682875,2.682875 0 0 0 29.617809,33.962819 3.2305625,3.2305625 0 0 1 29.697184,34.383506 H 29.673372 A 8.2999791,8.2999791 0 0 0 29.295018,32.978569 C 29.130976,32.531423 28.966934,32.116027 28.805538,31.737673 28.644143,31.359319 28.503913,31.010069 28.395434,30.695215 A 2.4659166,2.4659166 0 0 1 28.231393,29.922631 C 28.231393,29.700381 28.231393,29.520465 28.252559,29.393465 28.273726,29.266465 28.273726,29.089194 28.273726,28.888111 H 28.23933 A 7.6332291,7.6332291 0 0 0 27.974747,29.761236 4.1830624,4.1830624 0 0 0 27.813351,30.835444 5.3736874,5.3736874 0 0 0 28.009143,32.449402 4.4555833,4.4555833 0 0 0 28.543601,33.576527 Z M 34.644893,42.672902 A 3.1935208,3.1935208 0 0 0 35.012663,42.688777 3.7385625,3.7385625 0 0 0 35.515372,42.657027 C 35.671476,42.633215 35.875205,42.601465 36.118622,42.556485 36.362038,42.511506 36.68483,42.437423 37.076413,42.336881 37.467997,42.23634 37.98658,42.10934 38.634809,41.95059 38.20883,41.839465 37.841059,41.733631 37.528851,41.63309 A 2.5108958,2.5108958 0 0 1 36.58958,41.051006 C 36.20858,40.717631 35.830226,40.371027 35.449226,40.01384 35.152893,39.749256 34.840684,39.484673 34.541705,39.204215 34.457038,39.127485 34.012538,38.738548 33.888184,38.611548 L 33.856434,38.645944 C 33.906705,38.725319 34.319455,39.55611 34.319455,39.55611 34.319455,39.55611 34.385601,39.646069 34.412059,39.693694 34.523184,39.892131 34.634309,40.093215 34.742788,40.294298 34.785122,40.373673 34.827455,40.453048 34.867143,40.532423 A 1.8282708,1.8282708 0 0 0 35.438643,41.180652 3.635375,3.635375 0 0 0 36.848872,41.881798 V 41.916194 L 36.126559,41.799777 C 35.928122,41.765381 35.748205,41.738923 35.597393,41.71511 35.44658,41.691298 35.271955,41.678069 35.105268,41.66484 34.93858,41.65161 34.700455,41.641027 34.502018,41.611923 34.30358,41.582819 34.189809,41.55636 34.028413,41.540485 L 33.565393,41.487569 33.321976,41.458465 A 5.4874583,5.4874583 0 0 1 32.480601,41.307652 2.9104166,2.9104166 0 0 1 31.721247,40.990152 4.7624999,4.7624999 0 0 1 30.911622,40.368381 L 30.877226,40.402777 A 4.2015833,4.2015833 0 0 0 31.332309,41.040423 5.3101874,5.3101874 0 0 0 32.022872,41.709819 3.9819791,3.9819791 0 0 0 33.017705,42.289256 5.3604583,5.3604583 0 0 0 34.340622,42.630569 Z M 29.419372,32.166298 H 29.461705 A 3.2014583,3.2014583 0 0 1 29.559601,31.637131 2.9104166,2.9104166 0 0 1 29.808309,31.068277 8.8000416,8.8000416 0 0 1 30.321601,30.274527 Q 30.654976,29.806215 31.218538,28.999236 A 4.3603333,4.3603333 0 0 0 31.747705,27.824486 C 31.879997,27.37734 31.969955,27.054548 32.012288,26.853465 H 31.977893 A 1.3440833,1.3440833 0 0 1 31.82708,27.136569 3.3655,3.3655 0 0 1 31.612768,27.401152 4.7624999,4.7624999 0 0 1 31.263518,27.753048 C 31.120643,27.887986 30.927497,28.067902 30.68408,28.282215 A 3.2146875,3.2146875 0 0 0 29.821538,29.390819 7.1622707,7.1622707 0 0 0 29.490809,30.496777 H 29.461705 C 29.461705,30.319506 29.485518,30.144881 29.493455,29.967611 29.501393,29.79034 29.493455,29.581319 29.493455,29.311444 29.493455,28.978069 29.472288,28.586486 29.427309,28.136694 29.38233,27.686902 29.366455,27.110111 29.366455,26.39309 A 1.539875,1.539875 0 0 1 29.498747,25.755444 Q 29.631038,25.453819 29.728934,25.183944 H 29.705122 A 5.6435624,5.6435624 0 0 0 28.739393,26.893152 5.0535416,5.0535416 0 0 0 28.474809,28.451548 4.8312916,4.8312916 0 0 0 28.824059,30.20309 14.356291,14.356291 0 0 1 29.419372,32.166298 Z M 32.914518,40.860506 34.316809,41.180652 35.047059,41.34734 A 5.9054999,5.9054999 0 0 1 34.332684,40.386902 4.7968958,4.7968958 0 0 1 33.896122,39.463506 Q 33.695038,38.915819 33.321976,38.005652 A 4.3523958,4.3523958 0 0 0 33.105018,37.476485 Q 32.985955,37.243652 32.840434,36.992298 C 32.737247,36.822965 32.615538,36.63511 32.470018,36.420798 32.324497,36.206485 32.139288,35.944548 31.914393,35.627048 L 31.879997,35.661444 C 31.946143,35.883694 32.041393,36.288506 32.165747,36.867944 32.290101,37.447381 32.403872,37.997715 32.517643,38.513652 A 2.4950208,2.4950208 0 0 0 32.97008,39.571985 5.9081458,5.9081458 0 0 0 33.89083,40.561527 L 33.856434,40.595923 A 2.9792083,2.9792083 0 0 1 33.046809,40.066756 5.9187291,5.9187291 0 0 0 31.832372,39.294173 18.150416,18.150416 0 0 1 29.82683,38.169694 3.0109583,3.0109583 0 0 1 28.731455,36.846777 L 28.697059,36.878527 A 5.0270833,5.0270833 0 0 0 29.316184,38.376069 5.3551666,5.3551666 0 0 0 30.313663,39.550819 5.7679166,5.7679166 0 0 0 31.562497,40.386902 5.4186666,5.4186666 0 0 0 32.914518,40.860506 Z M 29.776559,37.402402 32.263643,39.04811 C 32.152518,38.823215 32.059913,38.611548 31.983184,38.410465 A 3.8152916,3.8152916 0 0 1 31.79533,37.741069 C 31.752997,37.495006 31.713309,37.211902 31.681559,36.918215 31.649809,36.624527 31.610122,36.25411 31.567788,35.828131 31.480476,35.089944 31.403747,34.52109 31.337601,34.116277 A 7.1146457,7.1146457 0 0 0 30.977768,32.80659 H 30.940726 A 7.8290207,7.8290207 0 0 1 30.893101,33.772319 6.5378541,6.5378541 0 0 1 30.758163,34.513152 C 30.702601,34.735402 30.657622,34.941777 30.625872,35.132277 A 3.7041666,3.7041666 0 0 0 30.575601,35.785798 2.9104166,2.9104166 0 0 0 30.792559,36.74359 8.3793541,8.3793541 0 0 0 31.205309,37.704027 L 31.173559,37.738423 A 9.7578332,9.7578332 0 0 0 30.04908,36.246173 L 29.041018,35.171965 A 7.7126041,7.7126041 0 0 1 28.268434,34.214173 2.7490208,2.7490208 0 0 1 27.850393,33.039423 2.7305,2.7305 0 0 0 27.786893,33.359569 2.428875,2.428875 0 0 0 27.765726,33.677069 3.540125,3.540125 0 0 0 27.966809,34.830652 5.6171041,5.6171041 0 0 0 28.469518,35.920735 5.4398333,5.4398333 0 0 0 29.123038,36.815027 3.4977916,3.4977916 0 0 0 29.776559,37.402402 Z M 50.173288,22.850319 C 50.406122,23.151944 50.65483,23.47209 50.911476,23.808111 A 12.067646,12.067646 0 0 0 51.76608,24.797652 6.4293749,6.4293749 0 0 0 52.901142,25.72634 5.9716458,5.9716458 0 0 0 52.107392,23.797527 3.3681458,3.3681458 0 0 0 51.128434,22.842381 4.2333333,4.2333333 0 0 0 50.173288,22.395236 1.9711458,1.9711458 0 0 1 49.41658,21.993069 L 49.382184,22.027465 A 5.5244999,5.5244999 0 0 1 50.173288,22.858256 Z M 52.371976,40.995444 A 2.9977291,2.9977291 0 0 1 51.612622,41.31559 6.1833124,6.1833124 0 0 1 50.768601,41.466402 L 50.52783,41.49286 50.062163,41.545777 C 49.903413,41.564298 49.749955,41.593402 49.591205,41.617215 49.432455,41.641027 49.186392,41.659548 48.987955,41.672777 48.789517,41.686006 48.659872,41.699235 48.49583,41.723048 48.331788,41.74686 48.151872,41.773319 47.966663,41.805069 47.781455,41.836819 47.530101,41.879152 47.244351,41.921485 V 41.889735 A 3.635375,3.635375 0 0 0 48.641351,41.180652 1.8520833,1.8520833 0 0 0 49.196976,40.535069 L 49.32133,40.296944 C 49.429809,40.09586 49.540934,39.897423 49.652059,39.698985 A 1.4022916,1.4022916 0 0 1 49.744663,39.561402 C 49.744663,39.561402 50.157413,38.73061 50.207684,38.64859 L 50.175934,38.614194 C 50.048934,38.74384 49.60708,39.14336 49.522413,39.209506 49.223434,39.47409 48.911226,39.738673 48.614892,40.019131 48.233892,40.373673 47.855538,40.720277 47.474538,41.053652 A 2.5214791,2.5214791 0 0 1 46.551142,41.638381 C 46.238934,41.738923 45.871163,41.844756 45.445184,41.955881 46.093413,42.111985 46.614642,42.241631 47.00358,42.342173 47.392517,42.442715 47.715309,42.514152 47.958726,42.559131 48.202142,42.60411 48.408517,42.638506 48.564622,42.659673 A 3.3363958,3.3363958 0 0 0 49.06733,42.694069 C 49.199622,42.694069 49.331913,42.694069 49.435101,42.678194 L 49.755247,42.643798 A 5.3604583,5.3604583 0 0 0 51.078163,42.302485 4.1142708,4.1142708 0 0 0 52.072997,41.723048 5.3207708,5.3207708 0 0 0 52.78208,41.045715 4.0745833,4.0745833 0 0 0 53.237163,40.408069 L 53.181601,40.386902 A 4.8630416,4.8630416 0 0 1 52.371976,40.995444 Z M 54.253163,38.161756 A 18.594916,18.594916 0 0 1 52.247622,39.286235 5.7044166,5.7044166 0 0 0 51.033184,40.058819 3.048,3.048 0 0 1 50.223559,40.587985 L 50.189163,40.55359 A 6.1198124,6.1198124 0 0 0 51.109913,39.564048 2.5214791,2.5214791 0 0 0 51.562351,38.505715 Q 51.73433,37.735777 51.914247,36.862652 C 52.038601,36.280569 52.133851,35.878402 52.199997,35.653506 L 52.165601,35.624402 C 51.940705,35.939256 51.755497,36.201194 51.609976,36.418152 51.464455,36.63511 51.345392,36.820319 51.239559,36.987006 51.133726,37.153694 51.049059,37.317735 50.969684,37.476485 A 4.1909999,4.1909999 0 0 0 50.752726,38.005652 C 50.504017,38.611548 50.313517,39.095735 50.17858,39.466152 A 4.7624999,4.7624999 0 0 1 49.742017,40.386902 6.0139791,6.0139791 0 0 1 49.027642,41.33411 L 49.757892,41.180652 51.160184,40.873735 A 5.4186666,5.4186666 0 0 0 52.512205,40.386902 5.8552291,5.8552291 0 0 0 53.761038,39.550819 5.3551666,5.3551666 0 0 0 54.753226,38.38136 5.0932291,5.0932291 0 0 0 55.377642,36.87059 L 55.343246,36.836194 A 3.01625,3.01625 0 0 1 54.253163,38.161756 Z M 55.282392,31.735027 Q 55.017809,32.306527 54.779684,32.978569 A 8.3687707,8.3687707 0 0 0 54.40133,34.388798 H 54.36958 A 3.2305625,3.2305625 0 0 1 54.448955,33.968111 2.6458333,2.6458333 0 0 0 54.52833,33.415131 3.0850416,3.0850416 0 0 0 54.327246,32.290652 6.6383957,6.6383957 0 0 0 53.853642,31.316986 C 53.673726,31.015361 53.499101,30.724319 53.324476,30.446506 A 2.9104166,2.9104166 0 0 1 52.969934,29.589256 H 52.935538 A 4.4979166,4.4979166 0 0 0 53.022851,30.96509 Q 53.176309,31.737673 53.38533,32.491736 53.594351,33.245798 53.782205,33.867569 A 3.5533541,3.5533541 0 0 1 53.972705,34.756569 V 35.227527 A 3.3390416,3.3390416 0 0 1 53.930372,35.756694 H 53.959476 A 7.4982916,7.4982916 0 0 1 54.779684,34.566069 10.167937,10.167937 0 0 0 55.531101,33.576527 4.5455416,4.5455416 0 0 0 56.076142,32.449402 5.3974999,5.3974999 0 0 0 56.277226,30.822215 4.1671874,4.1671874 0 0 0 56.11583,29.748006 7.4612499,7.4612499 0 0 0 55.851246,28.874881 H 55.811559 C 55.811559,29.075965 55.811559,29.245298 55.832726,29.37759 55.853892,29.509881 55.853892,29.689798 55.853892,29.906756 A 2.4950208,2.4950208 0 0 1 55.689851,30.67934 C 55.570788,31.007423 55.433205,31.356673 55.282392,31.735027 Z M 54.263746,29.385527 A 3.2093958,3.2093958 0 0 0 53.401205,28.279569 L 52.819122,27.750402 C 52.676247,27.615465 52.554538,27.485819 52.472517,27.395861 A 3.3734375,3.3734375 0 0 1 52.258205,27.131277 1.254125,1.254125 0 0 1 52.107392,26.834944 H 52.072997 C 52.117976,27.036027 52.207934,27.364111 52.33758,27.808611 A 4.4344166,4.4344166 0 0 0 52.866747,28.983361 C 53.242455,29.512527 53.541434,29.943798 53.763684,30.258652 A 8.8079791,8.8079791 0 0 1 54.276976,31.052402 2.9871458,2.9871458 0 0 1 54.525684,31.623902 3.1511875,3.1511875 0 0 1 54.62358,32.153069 H 54.665913 A 13.784791,13.784791 0 0 1 55.253288,30.189861 4.8418749,4.8418749 0 0 0 55.599892,28.427736 5.0826458,5.0826458 0 0 0 55.335309,26.866694 5.6012291,5.6012291 0 0 0 54.36958,25.173361 H 54.335184 C 54.40133,25.350631 54.478059,25.541131 54.565371,25.742215 A 1.5478125,1.5478125 0 0 1 54.697663,26.379861 Q 54.697663,27.456715 54.634163,28.126111 54.570663,28.795506 54.570663,29.300861 C 54.570663,29.565444 54.570663,29.787694 54.570663,29.954381 54.570663,30.121069 54.589184,30.295694 54.602413,30.483548 H 54.570663 A 7.1993124,7.1993124 0 0 0 54.250517,29.385527 Z M 52.768851,24.048881 A 3.5268958,3.5268958 0 0 1 53.070476,24.842631 C 53.147205,25.144256 53.237163,25.496152 53.335059,25.900965 53.432955,26.305777 53.586413,26.795256 53.790142,27.37734 V 27.411736 A 3.6247916,3.6247916 0 0 0 53.028142,26.353402 7.4665416,7.4665416 0 0 0 52.184122,25.684006 9.3292082,9.3292082 0 0 1 51.406247,25.096631 2.3415625,2.3415625 0 0 1 50.818872,24.247319 H 50.784476 C 50.919413,24.649486 51.027892,24.966986 51.107267,25.202465 A 4.4979166,4.4979166 0 0 0 51.342747,25.78984 1.571625,1.571625 0 0 0 51.628497,26.192006 C 51.742267,26.305777 51.89308,26.438069 52.070351,26.594173 Q 52.81383,27.231819 53.35358,27.668381 A 3.7041666,3.7041666 0 0 1 54.224059,28.681736 V 26.332236 A 3.2596666,3.2596666 0 0 0 53.652559,24.453694 2.524125,2.524125 0 0 0 52.173538,23.379486 V 23.413881 A 2.1166666,2.1166666 0 0 1 52.768851,24.048881 Z M 48.882122,43.363465 A 2.7516666,2.7516666 0 0 1 48.329142,43.297319 L 47.707372,43.180902 V 43.180902 C 47.508934,43.117402 47.284038,43.040673 47.030038,42.950715 46.776038,42.860756 46.46383,42.749631 46.103997,42.614694 L 44.672601,42.12786 A 2.9606875,2.9606875 0 0 0 43.712163,41.974402 4.7360416,4.7360416 0 0 0 42.733205,42.090819 C 42.39983,42.164902 42.156413,42.22311 41.997663,42.265444 41.857434,42.22311 41.624601,42.164902 41.291226,42.090819 A 4.6857708,4.6857708 0 0 0 40.320205,41.974402 2.9104166,2.9104166 0 0 0 39.365059,42.14109 C 39.039622,42.252215 38.571309,42.405673 37.938955,42.641152 37.200768,42.905735 36.65308,43.096235 36.295893,43.20736 A 3.7041666,3.7041666 0 0 1 35.189934,43.371402 3.4925,3.4925 0 0 1 34.718976,43.339652 1.8176875,1.8176875 0 0 1 34.316809,43.23911 C 34.316809,43.23911 34.001955,43.146506 33.82733,43.072423 L 33.187038,42.768152 33.155288,42.799902 A 6.6145832,6.6145832 0 0 0 34.332684,43.704777 3.6856458,3.6856458 0 0 0 36.184768,44.233944 4.8736249,4.8736249 0 0 0 36.904434,44.183673 2.76225,2.76225 0 0 0 37.54208,43.998465 C 37.753747,43.911152 37.989226,43.797381 38.245872,43.66509 38.502518,43.532798 38.81208,43.352881 39.169268,43.135923 39.526455,42.918965 39.867768,42.694069 40.124413,42.548548 A 1.7991666,1.7991666 0 0 1 41.013413,42.33159 1.3467291,1.3467291 0 0 1 41.41558,42.397735 Q 40.756768,42.768152 39.896872,43.297319 A 7.8184374,7.8184374 0 0 0 38.237934,44.678444 L 38.806788,45.181152 A 12.120562,12.120562 0 0 1 40.465726,43.561902 5.6197499,5.6197499 0 0 1 42.010892,42.60411 5.8552291,5.8552291 0 0 1 43.556059,43.561902 11.662833,11.662833 0 0 1 45.228226,45.17586 L 45.799726,44.673152 A 7.6411666,7.6411666 0 0 0 44.111684,43.297319 Q 43.238559,42.768152 42.566517,42.41361 A 2.0293541,2.0293541 0 0 1 43.005726,42.347465 1.80975,1.80975 0 0 1 43.897372,42.564423 Q 44.286309,42.784027 44.857809,43.151798 L 45.73358,43.667735 A 4.5349583,4.5349583 0 0 0 46.424142,44.003756 5.1567291,5.1567291 0 0 0 47.048559,44.188965 3.3443333,3.3443333 0 0 0 47.707372,44.25511 H 47.842309 A 4.0666458,4.0666458 0 0 0 49.371601,43.91909 4.0216666,4.0216666 0 0 0 50.866497,42.813131 V 42.768152 A 10.183812,10.183812 0 0 1 49.755247,43.223235 2.7966458,2.7966458 0 0 1 48.882122,43.358173 Z M 56.30633,33.624152 C 56.30633,33.589756 56.30633,33.555361 56.30633,33.520965 A 1.4843125,1.4843125 0 0 0 56.290455,33.364861 C 56.27458,33.264319 56.253413,33.158486 56.226955,33.044715 A 2.7728333,2.7728333 0 0 1 55.811559,34.216819 8.3661249,8.3661249 0 0 1 55.044267,35.171965 L 54.988705,35.230173 54.033559,36.248819 A 9.8107499,9.8107499 0 0 0 52.930247,37.71461 V 37.71461 A 6.6992499,6.6992499 0 0 0 53.324476,36.756819 3.0771041,3.0771041 0 0 0 53.525559,35.801673 4.0137291,4.0137291 0 0 0 53.475288,35.145506 Q 53.425017,34.859756 53.356226,34.526381 C 53.295372,34.301485 53.255684,34.036902 53.223934,33.772319 A 7.8872291,7.8872291 0 0 1 53.165726,32.80659 H 53.139267 V 32.827756 32.809236 H 53.104872 A 7.1146457,7.1146457 0 0 0 52.745038,34.132152 C 52.681538,34.534319 52.602163,35.105819 52.514851,35.84136 52.472517,36.26734 52.435476,36.63511 52.40108,36.93409 52.366684,37.233069 52.329642,37.508235 52.287309,37.756944 A 3.7861875,3.7861875 0 0 1 52.107392,38.41311 C 52.041247,38.58509 51.961872,38.767652 51.871913,38.942277 51.856038,38.974027 51.837517,39.003131 51.818997,39.034881 H 51.832226 L 52.665663,38.481902 54.343121,37.386527 A 3.5824583,3.5824583 0 0 0 54.996642,36.799152 4.9000833,4.9000833 0 0 0 55.634288,35.912798 6.2706249,6.2706249 0 0 0 55.951788,35.256631 C 56.012642,35.116402 56.070851,34.973527 56.121121,34.822715 A 3.5348333,3.5348333 0 0 0 56.322205,33.666486 V 33.666486 C 56.308976,33.658548 56.30633,33.640027 56.30633,33.618861 Z M 46.551142,23.739319 A 0.98424999,0.98424999 0 0 1 46.731059,23.839861 1.5531041,1.5531041 0 0 1 46.842184,23.972152 0.14552083,0.14552083 0 0 0 46.958601,24.040944 C 47.022101,24.040944 47.056497,24.017131 47.056497,23.972152 47.056497,23.927173 47.056497,23.911298 47.040622,23.921881 47.024747,23.932465 47.022101,23.921881 47.022101,23.871611 A 0.26458333,0.26458333 0 0 0 46.958601,23.673173 0.26458333,0.26458333 0 0 0 46.664913,23.604381 0.09789583,0.09789583 0 0 0 46.601413,23.572631 H 46.551142 C 46.487642,23.572631 46.453247,23.593798 46.453247,23.638777 46.453247,23.683756 46.490288,23.718152 46.551142,23.739319 Z M 42.987205,22.924402 H 43.055997 A 1.539875,1.539875 0 0 1 43.460809,22.839736 H 43.931767 A 0.24077083,0.24077083 0 0 0 44.135497,22.755069 0.93927082,0.93927082 0 0 0 44.236038,22.601611 0.63764583,0.63764583 0 0 0 43.831226,22.363486 2.5532291,2.5532291 0 0 0 43.495205,22.32909 2.0611041,2.0611041 0 0 0 43.090392,22.453444 C 42.865497,22.532819 42.730559,22.585736 42.68558,22.609548 42.571809,22.585736 42.505663,22.609548 42.484497,22.680986 A 1.5478125,1.5478125 0 0 0 42.667059,22.83709 0.52916666,0.52916666 0 0 0 42.987205,22.924402 Z M 41.973851,41.320881 A 10.125604,10.125604 0 1 0 31.850893,31.195277 10.136187,10.136187 0 0 0 41.973851,41.320881 Z M 32.36683,31.451923 H 33.906705 A 8.0168749,8.0168749 0 0 0 34.224205,33.446881 0.18785416,0.18785416 0 0 1 34.107788,33.364861 L 34.060163,33.317236 33.89083,33.079111 33.610372,33.182298 C 33.610372,33.338402 33.554809,33.396611 33.443684,33.351631 A 0.19579166,0.19579166 0 0 0 33.308747,33.28284 0.30427083,0.30427083 0 0 0 32.985955,33.56859 3.1062083,3.1062083 0 0 0 32.935684,33.957527 L 33.171163,34.566069 C 33.218788,34.63486 33.284934,34.645444 33.374893,34.600465 A 2.397125,2.397125 0 0 0 33.586559,34.830652 0.23547916,0.23547916 0 0 0 33.758538,34.899444 0.09260417,0.09260417 0 0 0 33.864372,34.796256 H 33.898768 A 2.016125,2.016125 0 0 1 34.038997,34.949715 0.81491666,0.81491666 0 0 0 34.213622,35.100527 V 35.068777 A 0.41010416,0.41010416 0 0 0 34.499372,35.190485 0.80962499,0.80962499 0 0 0 34.697809,35.563548 0.37835416,0.37835416 0 0 0 34.962393,35.701131 0.19579166,0.19579166 0 0 0 35.09733,35.63234 1.1244792,1.1244792 0 0 0 35.264018,35.973652 1.5319375,1.5319375 0 0 1 35.433351,36.074194 0.87577082,0.87577082 0 0 1 35.568288,36.177381 H 35.63708 A 0.60324999,0.60324999 0 0 0 35.803768,36.441965 1.2779375,1.2779375 0 0 0 36.007497,36.611298 H 35.98633 36.004851 36.028663 C 36.052476,36.637756 36.073643,36.664215 36.097455,36.688027 L 35.010018,37.775465 A 9.5752707,9.5752707 0 0 1 32.36683,31.451923 Z M 39.775163,28.612944 A 0.85724999,0.85724999 0 0 0 39.687851,28.560027 L 39.584663,28.45684 A 3.6274375,3.6274375 0 0 1 41.70133,27.575777 V 28.64734 A 0.15610416,0.15610416 0 0 0 41.656351,28.620881 0.16933333,0.16933333 0 0 1 41.629892,28.586486 V 28.586486 A 0.12435417,0.12435417 0 0 0 41.547872,28.567965 0.18520833,0.18520833 0 0 0 41.51083,28.567965 V 28.567965 A 0.31220833,0.31220833 0 0 0 41.436747,28.567965 0.26458333,0.26458333 0 0 1 41.357372,28.58384 0.07672917,0.07672917 0 0 1 41.315038,28.58384 C 41.283288,28.560027 41.267413,28.512402 41.267413,28.430381 V 28.430381 28.430381 C 41.174809,28.475361 41.124538,28.52034 41.113955,28.565319 41.103372,28.610298 41.084851,28.687027 41.063684,28.800798 A 0.24870833,0.24870833 0 0 1 40.891705,28.983361 0.58208333,0.58208333 0 0 0 40.687976,29.102423 L 40.584788,29.036277 H 40.415455 A 0.43391666,0.43391666 0 0 0 40.312268,28.951611 0.26458333,0.26458333 0 0 1 40.246122,28.90134 Q 40.214372,28.866944 40.214372,28.90134 A 0.08202083,0.08202083 0 0 0 40.124413,28.975423 L 40.023872,28.877527 H 40.05033 V 28.798152 A 1.5028333,1.5028333 0 0 0 39.785747,28.612944 Z M 39.222184,28.083777 38.187663,27.049256 A 5.5800624,5.5800624 0 0 1 41.706622,25.588756 V 27.051902 A 4.1169166,4.1169166 0 0 0 39.232768,28.094361 Z M 39.814851,32.978569 C 39.867768,32.925652 39.843955,32.827756 39.865122,32.761611 L 39.748705,32.867444 A 0.98424999,0.98424999 0 0 0 39.949788,32.602861 0.93133332,0.93133332 0 0 1 40.05033,32.417652 V 32.417652 C 40.087372,32.48909 40.129705,32.560527 40.172038,32.629319 L 39.227476,33.573881 A 3.5930416,3.5930416 0 0 1 38.433726,32.052527 0.86254166,0.86254166 0 0 1 38.669205,32.118673 2.047875,2.047875 0 0 1 38.880872,32.311819 0.2936875,0.2936875 0 0 0 39.018455,32.277423 L 39.153393,32.380611 A 0.26458333,0.26458333 0 0 0 39.187788,32.547298 C 39.187788,32.571111 39.222184,32.597569 39.290976,32.631965 A 0.3254375,0.3254375 0 0 1 39.428559,32.748381 L 39.494705,32.716631 A 1.0583333,1.0583333 0 0 0 39.47883,32.581694 C 39.47883,32.515548 39.47883,32.481152 39.494705,32.481152 L 39.560851,32.716631 39.629643,32.981215 V 32.981215 A 0.20108333,0.20108333 0 0 0 39.814851,32.978569 Z M 41.82833,34.036902 C 41.883892,34.092465 41.910351,34.132152 41.910351,34.153319 41.910351,34.222111 41.820392,34.253861 41.645767,34.253861 41.576976,34.253861 41.531997,34.320006 41.508184,34.447006 41.484372,34.574006 41.463205,34.682485 41.442038,34.767152 H 41.386476 C 41.386476,34.767152 41.386476,34.767152 41.386476,34.780381 A 3.6327291,3.6327291 0 0 1 39.592601,33.944298 L 40.505413,33.031486 A 2.159,2.159 0 0 0 41.788642,33.610923 0.24870833,0.24870833 0 0 0 41.820392,33.753798 0.22489583,0.22489583 0 0 0 41.754247,33.920486 C 41.743663,33.944298 41.770122,33.983986 41.82833,34.036902 Z M 37.330413,34.100402 A 4.8074791,4.8074791 0 0 0 37.261622,33.526256 2.7648958,2.7648958 0 0 0 37.158434,33.221986 1.5875,1.5875 0 0 0 37.052601,32.766902 1.9314583,1.9314583 0 0 0 36.732455,32.346215 V 32.150423 A 0.85460416,0.85460416 0 0 0 36.666309,31.954631 V 31.920236 A 0.079375,0.079375 0 0 1 36.719226,31.832923 L 37.073768,31.711215 A 0.83608332,0.83608332 0 0 1 37.108163,31.401652 L 37.354226,31.443986 C 37.423018,31.443986 37.457413,31.399006 37.457413,31.303756 A 1.1377083,1.1377083 0 0 0 37.391268,31.094736 0.73289582,0.73289582 0 0 1 37.322476,30.851319 C 37.322476,30.803694 37.356872,30.764006 37.423018,30.729611 A 0.44714583,0.44714583 0 0 1 37.624101,30.676694 0.26458333,0.26458333 0 0 1 37.85958,30.793111 0.52916666,0.52916666 0 0 1 37.925726,31.057694 0.97631249,0.97631249 0 0 1 37.909851,31.240256 0.64558333,0.64558333 0 0 0 37.89133,31.388423 L 37.960122,31.422819 Q 37.89133,31.756194 37.695538,31.756194 A 0.16404166,0.16404166 0 0 1 37.555309,31.655652 0.14022916,0.14022916 0 0 0 37.438893,31.570986 C 37.417726,31.570986 37.407143,31.570986 37.407143,31.605381 A 0.33602083,0.33602083 0 0 0 37.438893,31.742965 0.3571875,0.3571875 0 0 1 37.473288,31.912298 C 37.473288,32.071048 37.401851,32.126611 37.261622,32.081631 37.213997,32.166298 37.261622,32.208631 37.399205,32.208631 37.44683,32.346215 37.494455,32.401777 37.54208,32.380611 A 0.59002083,0.59002083 0 0 0 37.610872,32.150423 1.2647083,1.2647083 0 0 1 37.679663,31.88584 L 37.716705,31.920236 37.856934,31.88584 A 0.28045833,0.28045833 0 0 0 37.856934,31.936111 H 37.896622 A 4.0983958,4.0983958 0 0 0 38.878226,33.936361 L 37.444184,35.359819 A 0.24077083,0.24077083 0 0 1 37.367455,35.137569 C 37.396559,34.999985 37.534143,34.915319 37.552663,34.772444 37.552663,34.772444 37.587059,34.50786 37.587059,34.50786 A 1.3890625,1.3890625 0 0 1 37.340997,34.103048 Z M 36.512851,31.983736 A 0.26458333,0.26458333 0 0 1 36.547247,32.116027 C 36.547247,32.184819 36.52608,32.213923 36.478455,32.200694 H 36.454643 A 5.5562499,5.5562499 0 0 1 36.364684,31.438694 H 36.655726 A 0.36777083,0.36777083 0 0 1 36.626622,31.576277 1.2594167,1.2594167 0 0 1 36.541955,31.711215 0.22225,0.22225 0 0 0 36.489038,31.843506 0.33072916,0.33072916 0 0 0 36.523434,31.994319 Z M 36.364684,30.925402 A 5.5959374,5.5959374 0 0 1 37.835768,27.422319 L 38.878226,28.454194 38.849122,28.48859 A 0.91016666,0.91016666 0 0 0 38.669205,28.55209 C 38.624226,28.607652 38.576601,28.671152 38.521038,28.750527 A 1.539875,1.539875 0 0 0 38.200893,28.919861 1.8997083,1.8997083 0 0 0 37.936309,29.184444 C 37.801372,29.253236 37.716705,29.290277 37.671726,29.303506 A 0.3095625,0.3095625 0 0 0 37.552663,29.385527 C 37.597643,29.499298 37.597643,29.560152 37.552663,29.570736 L 37.213997,29.655402 A 0.10847917,0.10847917 0 0 0 37.147851,29.689798 L 37.047309,29.79034 A 0.26458333,0.26458333 0 0 0 37.012913,29.909402 0.24870833,0.24870833 0 0 1 36.978518,30.025819 0.63235416,0.63235416 0 0 0 36.81183,30.195152 0.40216666,0.40216666 0 0 0 36.81183,30.499423 L 36.854163,30.835444 H 36.838288 A 0.50270833,0.50270833 0 0 1 36.867393,30.938631 Z M 39.232768,34.301485 A 4.1539583,4.1539583 0 0 0 41.029288,35.227527 L 40.881122,35.277798 A 0.26458333,0.26458333 0 0 0 40.677393,35.497402 C 40.656226,35.63234 40.605955,35.719652 40.52658,35.761985 40.447205,35.804319 40.420747,35.846652 40.441913,35.915444 A 0.93927082,0.93927082 0 0 1 40.677393,36.322902 0.42068749,0.42068749 0 0 0 41.016059,36.627173 L 41.217142,36.695965 A 0.40216666,0.40216666 0 0 1 41.418226,36.770048 C 41.476434,36.770048 41.534642,36.785923 41.592851,36.799152 A 5.5747708,5.5747708 0 0 1 38.198247,35.33336 Z M 37.835768,26.697361 36.814476,25.673423 A 7.5353332,7.5353332 0 0 1 41.717205,23.638777 V 25.086048 A 6.1012916,6.1012916 0 0 0 37.835768,26.697361 Z M 37.475934,27.05984 A 6.0854166,6.0854166 0 0 0 35.864622,30.941277 H 34.417351 A 7.5353332,7.5353332 0 0 1 36.451997,26.035902 Z M 35.864622,31.451923 A 6.2494583,6.2494583 0 0 0 35.943997,32.198048 1.143,1.143 0 0 1 35.888434,32.097506 C 35.809059,31.989027 35.740268,31.933465 35.689997,31.933465 A 0.1349375,0.1349375 0 0 0 35.552413,32.018131 0.43920833,0.43920833 0 0 1 35.449226,32.168944 0.92604165,0.92604165 0 0 1 35.076163,32.338277 0.83343749,0.83343749 0 0 0 34.872434,32.74309 0.11641667,0.11641667 0 0 0 34.888309,32.878027 C 34.922705,32.923006 34.904184,32.967986 34.838038,33.012965 34.883018,33.102923 34.893601,33.158486 34.872434,33.182298 34.893601,33.227277 34.888309,33.243152 34.853913,33.232569 A 0.079375,0.079375 0 0 0 34.769247,33.248444 0.20902083,0.20902083 0 0 0 34.721622,33.325173 7.4347916,7.4347916 0 0 1 34.417351,31.451923 Z M 41.717205,40.802298 A 9.5779165,9.5779165 0 0 1 35.367205,38.156465 L 36.454643,37.066381 A 8.0380416,8.0380416 0 0 0 41.719851,39.25184 Z M 41.717205,38.751777 A 7.5326874,7.5326874 0 0 1 36.835643,36.735652 0.67204166,0.67204166 0 0 0 37.100226,36.809735 0.73024999,0.73024999 0 0 0 37.364809,36.738298 3.0056666,3.0056666 0 0 0 37.66908,36.595423 0.55827083,0.55827083 0 0 0 37.973351,36.529277 0.50535416,0.50535416 0 0 0 38.237934,36.529277 0.15875,0.15875 0 0 0 38.356997,36.359944 0.23283333,0.23283333 0 0 0 38.237934,36.174735 C 38.155913,36.119173 38.116226,36.068902 38.116226,36.023923 38.116226,35.978944 38.095059,35.973652 38.047434,35.939256 A 1.9155833,1.9155833 0 0 1 37.830476,35.69584 V 35.69584 A 6.0986458,6.0986458 0 0 0 41.711913,37.304506 Z M 41.981788,34.994694 V 34.994694 A 0.72495832,0.72495832 0 0 1 41.648413,34.941777 C 41.648413,34.912673 41.624601,34.883569 41.614017,34.851819 A 1.397,1.397 0 0 1 41.772767,34.748631 0.45772916,0.45772916 0 0 1 41.981788,34.661319 V 34.566069 L 42.230497,34.378215 A 0.29104166,0.29104166 0 0 1 42.317809,34.346465 1.2647083,1.2647083 0 0 0 42.508309,34.277673 1.1959167,1.1959167 0 0 1 42.772892,34.396735 1.0742083,1.0742083 0 0 0 43.037476,34.513152 L 43.071872,34.378215 C 43.116851,34.378215 43.182997,34.423194 43.272955,34.513152 A 0.33072916,0.33072916 0 0 0 43.442288,34.447006 0.23283333,0.23283333 0 0 0 43.442288,34.277673 0.2936875,0.2936875 0 0 1 43.54283,34.312069 0.0635,0.0635 0 0 1 43.593101,34.33059 0.0714375,0.0714375 0 0 0 43.643372,34.346465 H 43.677767 A 0.3730625,0.3730625 0 0 0 43.862976,34.261798 1.6589375,1.6589375 0 0 1 44.048184,34.142736 0.04233333,0.04233333 0 0 1 44.11433,34.142736 0.19314583,0.19314583 0 0 1 44.148726,34.277673 0.43127083,0.43127083 0 0 1 43.862976,34.682485 4.5164374,4.5164374 0 0 1 43.373497,34.883569 0.63764583,0.63764583 0 0 0 43.28883,35.037027 C 43.25708,35.116402 43.217392,35.153444 43.172413,35.153444 A 1.9685,1.9685 0 0 1 42.757017,35.095235 0.69320832,0.69320832 0 0 1 42.65383,34.891506 1.1165417,1.1165417 0 0 0 42.410413,34.925902 L 42.132601,34.994694 A 0.32808333,0.32808333 0 0 1 41.989726,34.994694 Z M 43.442288,33.883444 A 0.26458333,0.26458333 0 0 1 43.611622,33.66384 0.74877082,0.74877082 0 0 1 43.876205,33.613569 C 43.876205,33.679715 43.812705,33.748506 43.690997,33.814652 A 0.85460416,0.85460416 0 0 1 43.471392,33.915194 Z M 44.487392,33.057944 A 0.26458333,0.26458333 0 0 1 44.62233,33.322527 0.1190625,0.1190625 0 0 1 44.487392,33.457465 C 44.418601,33.457465 44.363038,33.37809 44.318059,33.221986 44.159309,33.177006 44.071997,33.102923 44.053476,33.002381 44.034955,32.90184 44.053476,32.840986 44.087872,32.817173 A 0.93133332,0.93133332 0 0 1 44.222809,32.766902 C 44.267788,32.766902 44.278372,32.80659 44.257205,32.917715 Z M 47.741767,27.401152 A 0.09525,0.09525 0 0 1 47.810559,27.435548 0.41010416,0.41010416 0 0 1 48.046038,27.501694 2.5664583,2.5664583 0 0 1 48.453497,28.007048 C 48.477309,28.007048 48.503767,28.041444 48.538163,28.110236 48.572559,28.179027 48.612247,28.210777 48.657226,28.210777 A 0.48947916,0.48947916 0 0 0 48.831851,28.155215 C 48.831851,28.123465 48.831851,28.094361 48.853017,28.062611 A 7.5432707,7.5432707 0 0 1 49.530351,30.941277 H 48.101601 A 0.079375,0.079375 0 0 1 48.101601,30.914819 0.71966666,0.71966666 0 0 0 48.022226,30.539111 0.73289582,0.73289582 0 0 1 47.974601,30.041694 0.52916666,0.52916666 0 0 0 47.993122,29.75859 0.1984375,0.1984375 0 0 0 47.874059,29.803569 0.55827083,0.55827083 0 0 0 47.786747,29.954381 C 47.754997,30.033756 47.725892,30.094611 47.704726,30.13959 V 30.158111 A 0.26458333,0.26458333 0 0 0 47.678267,30.221611 0.26458333,0.26458333 0 0 1 47.643872,30.306277 C 47.620059,30.396236 47.598892,30.486194 47.57508,30.570861 A 0.69320832,0.69320832 0 0 0 47.57508,30.835444 V 30.938631 H 46.84483 A 0.41274999,0.41274999 0 0 1 47.000934,30.835444 H 46.977122 L 47.172913,30.737548 A 0.10847917,0.10847917 0 0 1 47.106767,30.637006 C 47.106767,30.570861 47.106767,30.531173 47.141163,30.52059 47.175559,30.510006 47.22583,30.480902 47.336955,30.438569 A 1.412875,1.412875 0 0 0 47.516872,30.123715 2.0399375,2.0399375 0 0 0 47.781455,29.454319 C 47.781455,29.401402 47.712663,29.335256 47.704726,29.279694 A 0.97631249,0.97631249 0 0 1 47.720601,29.134173 C 47.720601,28.898694 47.82908,28.48859 47.524809,28.414506 47.500997,28.414506 47.490413,28.380111 47.490413,28.313965 A 0.23283333,0.23283333 0 0 0 47.559205,28.049381 H 47.344892 A 0.301625,0.301625 0 0 1 47.395163,27.930319 0.29633333,0.29633333 0 0 0 47.44808,27.779506 0.08995833,0.08995833 0 0 0 47.344892,27.686902 0.36777083,0.36777083 0 0 0 47.172913,27.721298 0.26458333,0.26458333 0 0 1 47.06708,27.755694 0.15875,0.15875 0 0 1 47.014163,27.755694 L 46.969184,27.686902 A 0.52916666,0.52916666 0 0 0 46.815726,27.348236 0.65881249,0.65881249 0 0 0 46.551142,27.157736 V 27.157736 A 0.21960416,0.21960416 0 0 0 46.551142,27.014861 L 46.815726,26.707944 47.22583,26.856111 A 0.26458333,0.26458333 0 0 0 47.331663,27.09159 1.2197292,1.2197292 0 0 0 47.474538,27.192131 1.5028333,1.5028333 0 0 1 47.635934,27.31384 V 27.332361 C 47.686205,27.379986 47.720601,27.401152 47.741767,27.401152 Z M 46.352705,37.211902 A 0.11641667,0.11641667 0 0 0 46.268038,37.177506 C 46.233642,37.177506 46.217767,37.15634 46.217767,37.11136 46.217767,37.066381 46.252163,37.021402 46.320955,36.976423 A 0.50799999,0.50799999 0 0 0 46.490288,36.740944 0.52916666,0.52916666 0 0 0 46.551142,36.523985 0.07672917,0.07672917 0 0 0 46.498226,36.441965 0.3571875,0.3571875 0 0 1 46.379163,36.357298 1.3546666,1.3546666 0 0 0 46.228351,36.291152 1.1191875,1.1191875 0 0 1 46.043142,36.187965 0.19579166,0.19579166 0 0 1 45.939955,36.018631 0.86254166,0.86254166 0 0 1 45.990226,35.851944 C 45.990226,35.82284 46.014038,35.79109 46.027267,35.761985 L 46.103997,35.69584 46.881872,36.473715 C 46.881872,36.563673 46.937434,36.613944 47.040622,36.632465 L 47.125288,36.717131 A 7.4083332,7.4083332 0 0 1 46.254809,37.415631 0.29633333,0.29633333 0 0 1 46.313017,37.328319 0.14816666,0.14816666 0 0 1 46.352705,37.30186 0.15875,0.15875 0 0 0 46.352705,37.211902 Z M 45.884392,33.507736 A 0.23547916,0.23547916 0 0 0 45.678017,33.542131 0.29897916,0.29897916 0 0 0 45.474288,33.740569 C 45.474288,33.761736 45.461059,33.772319 45.439892,33.772319 A 0.3175,0.3175 0 0 0 45.304955,33.806715 1.2329583,1.2329583 0 0 0 45.135622,33.875506 C 45.069476,33.875506 45.03508,33.851694 45.03508,33.806715 45.03508,33.761736 45.135622,33.69559 45.339351,33.671777 Q 45.468997,33.507736 45.506038,33.47334 A 0.38364583,0.38364583 0 0 1 45.662142,33.407194 0.72760416,0.72760416 0 0 0 45.926726,33.161131 0.81756249,0.81756249 0 0 0 46.053726,32.946819 H 46.085476 C 46.085476,33.055298 46.133101,33.110861 46.225705,33.110861 46.318309,33.110861 46.355351,33.034131 46.402976,32.878027 A 1.2144375,1.2144375 0 0 0 46.68608,32.946819 0.26458333,0.26458333 0 0 0 46.932142,32.817173 H 47.344892 A 0.14816666,0.14816666 0 0 0 47.344892,32.848923 V 32.875381 32.875381 A 5.6329791,5.6329791 0 0 1 46.215122,34.891506 C 46.215122,34.85711 46.215122,34.822715 46.215122,34.788319 46.215122,34.788319 46.11458,34.481402 46.093413,34.481402 46.072247,34.481402 45.995517,34.560777 45.932017,34.716881 45.868517,34.872985 45.826184,34.981465 45.805017,35.018506 L 45.466351,35.087298 A 1.2964583,1.2964583 0 0 1 45.164726,35.121694 0.84931249,0.84931249 0 0 1 44.878976,35.002631 0.91016666,0.91016666 0 0 0 44.59058,34.886215 2.0716875,2.0716875 0 0 0 44.30483,34.817423 C 44.180476,34.796256 44.119622,34.76186 44.119622,34.716881 44.119622,34.671902 44.164601,34.61634 44.254559,34.61634 A 1.3546666,1.3546666 0 0 1 44.519142,34.66661 L 44.923955,34.767152 45.294372,34.867694 A 1.095375,1.095375 0 0 0 45.495455,34.917965 L 45.699184,34.851819 A 0.41010416,0.41010416 0 0 1 45.76533,34.66661 0.39158333,0.39158333 0 0 0 45.834122,34.481402 1.5028333,1.5028333 0 0 0 45.958476,34.110986 1.7912291,1.7912291 0 0 0 46.014038,33.706173 C 45.98758,33.581819 45.950538,33.507736 45.884392,33.507736 Z M 46.778684,31.465152 H 47.572434 A 5.7255833,5.7255833 0 0 1 47.440142,32.449402 1.1138958,1.1138958 0 0 0 47.268163,32.147777 L 47.00358,31.883194 C 46.979767,31.772069 46.963892,31.692694 46.950663,31.647715 A 0.28310416,0.28310416 0 0 0 46.905684,31.56834 0.54768749,0.54768749 0 0 1 46.778684,31.451923 Z M 47.106767,35.574131 C 47.037976,35.574131 47.006226,35.592652 47.006226,35.624402 A 1.8335625,1.8335625 0 0 1 46.974476,35.833423 L 46.471767,35.33336 A 6.0854166,6.0854166 0 0 0 47.895226,32.713986 L 47.919038,32.692819 Q 48.088372,32.756319 48.141288,32.692819 A 0.20108333,0.20108333 0 0 0 48.191559,32.592277 0.45772916,0.45772916 0 0 0 48.024872,32.327694 H 47.982538 A 6.3341249,6.3341249 0 0 0 48.08308,31.451923 H 49.530351 A 7.5353332,7.5353332 0 0 1 47.495705,36.354652 L 47.432205,36.293798 V 36.280569 C 47.411038,36.124465 47.387226,35.973652 47.358122,35.825485 47.329017,35.677319 47.241705,35.574131 47.106767,35.574131 Z M 46.74958,28.268986 A 0.52916666,0.52916666 0 0 1 46.715184,28.438319 1.762125,1.762125 0 0 1 46.649038,28.607652 1.0265833,1.0265833 0 0 0 46.913622,28.843131 2.667,2.667 0 0 1 47.217892,29.078611 1.6298333,1.6298333 0 0 1 47.368705,29.467548 1.7965208,1.7965208 0 0 1 47.453372,29.824736 0.80697916,0.80697916 0 0 1 47.35283,30.062861 0.39952083,0.39952083 0 0 1 47.016809,30.26659 L 46.982413,30.232194 A 0.48418749,0.48418749 0 0 1 47.048559,30.033756 0.52916666,0.52916666 0 0 0 47.117351,29.832673 0.26458333,0.26458333 0 0 0 47.252288,29.634236 L 47.149101,29.583965 A 1.1694583,1.1694583 0 0 1 46.982413,29.433152 C 46.982413,29.367006 46.913622,29.335256 46.78133,29.335256 A 0.26458333,0.26458333 0 0 0 46.611997,29.385527 2.0108333,2.0108333 0 0 1 46.442663,29.501944 L 46.376517,29.367006 A 0.33072916,0.33072916 0 0 0 46.410913,29.226777 L 46.14633,28.77434 A 1.0583333,1.0583333 0 0 0 45.775913,28.657923 0.61118749,0.61118749 0 0 0 45.51133,28.657923 0.62706249,0.62706249 0 0 1 45.246747,28.644694 0.34925,0.34925 0 0 0 44.963642,28.745236 1.1641667,1.1641667 0 0 0 44.741392,28.96484 C 44.706997,29.004527 44.741392,29.06009 44.65408,29.038923 A 0.47889583,0.47889583 0 0 1 44.569413,28.948965 L 46.109288,27.422319 A 0.35189583,0.35189583 0 0 0 46.14633,27.47259 L 46.281267,27.623402 C 46.328892,27.678965 46.376517,27.739819 46.424142,27.803319 A 5.6858958,5.6858958 0 0 1 46.74958,28.268986 Z M 43.077163,38.376069 A 1.2170833,1.2170833 0 0 0 43.508434,38.598319 7.5326874,7.5326874 0 0 1 42.230497,38.751777 V 37.304506 37.304506 A 0.85724999,0.85724999 0 0 0 42.444809,37.532048 0.93927082,0.93927082 0 0 0 42.741142,37.582319 C 42.891955,37.595548 42.968684,37.622006 42.968684,37.666985 A 0.3175,0.3175 0 0 1 42.918413,37.817798 0.31220833,0.31220833 0 0 0 42.865497,37.971256 0.51064583,0.51064583 0 0 0 43.077163,38.376069 Z M 42.230497,40.802298 V 39.262423 A 8.0618541,8.0618541 0 0 0 43.905309,39.032235 0.16139583,0.16139583 0 0 1 43.905309,39.063985 0.1190625,0.1190625 0 0 1 43.905309,39.106319 1.1800417,1.1800417 0 0 1 44.24133,39.426465 C 44.286309,39.516423 44.410663,39.561402 44.611747,39.561402 44.725517,39.561402 44.796955,39.540235 44.831351,39.495256 A 1.0874375,1.0874375 0 0 1 44.950413,39.360319 0.42597916,0.42597916 0 0 1 45.117101,39.257131 0.206375,0.206375 0 0 0 45.252038,39.15659 0.43391666,0.43391666 0 0 0 45.490163,38.955506 0.61647916,0.61647916 0 0 0 45.691247,38.690923 0.17991666,0.17991666 0 0 0 45.826184,38.608902 1.0583333,1.0583333 0 0 0 45.961122,38.25436 L 46.01933,38.219965 A 0.33072916,0.33072916 0 0 1 46.01933,38.169694 8.2232499,8.2232499 0 0 0 47.471892,37.082256 L 48.55933,38.17234 A 9.5779165,9.5779165 0 0 1 42.230497,40.802298 Z M 48.945622,37.804569 47.855538,36.717131 A 8.0327499,8.0327499 0 0 0 50.040997,31.451923 H 51.578226 A 9.585854,9.585854 0 0 1 48.945622,37.804569 Z M 51.578226,30.941277 H 50.040997 A 8.0142291,8.0142291 0 0 0 48.485247,26.443361 0.41010416,0.41010416 0 0 0 48.408517,26.303131 0.48947916,0.48947916 0 0 0 48.321205,26.226402 C 48.196851,26.065006 48.056622,25.911548 47.926976,25.760736 A 0.46037499,0.46037499 0 0 1 47.884642,25.652256 L 48.942976,24.593923 A 9.5911457,9.5911457 0 0 1 51.578226,30.941277 Z M 42.230497,21.601486 A 9.5646874,9.5646874 0 0 1 48.580497,24.247319 L 47.643872,25.183944 A 0.71437499,0.71437499 0 0 1 47.590955,25.041069 C 47.516872,24.974923 47.469247,24.935236 47.450726,24.935236 A 0.26458333,0.26458333 0 0 1 47.297267,24.720923 0.3571875,0.3571875 0 0 0 47.212601,24.503965 0.61383333,0.61383333 0 0 1 46.873934,24.207631 C 46.783976,24.054173 46.694017,23.974798 46.609351,23.974798 A 0.28310416,0.28310416 0 0 1 46.389747,23.950986 0.71172916,0.71172916 0 0 0 46.170142,23.890131 0.79374999,0.79374999 0 0 0 45.932017,23.924527 2.2410208,2.2410208 0 0 1 45.667434,23.990673 L 45.633038,24.025069 A 8.0036457,8.0036457 0 0 0 42.344267,23.136069 C 42.43158,22.99584 42.444809,22.903236 42.376017,22.871486 42.357497,22.852965 42.307226,22.871486 42.230497,22.953506 Z M 42.230497,23.649361 A 7.5750207,7.5750207 0 0 1 45.365809,24.443111 0.07672917,0.07672917 0 0 0 45.365809,24.466923 C 45.405497,24.506611 45.450476,24.556881 45.500747,24.61509 45.551017,24.673298 45.595997,24.726215 45.617163,24.747381 A 2.2436666,2.2436666 0 0 0 45.712413,25.041069 1.3890625,1.3890625 0 0 0 45.815601,25.207756 0.36247916,0.36247916 0 0 0 45.865872,25.490861 2.2648333,2.2648333 0 0 0 46.05108,25.773965 L 46.186017,25.75809 A 0.85989582,0.85989582 0 0 1 46.352705,25.739569 0.22225,0.22225 0 0 1 46.506163,25.840111 0.61912499,0.61912499 0 0 1 46.62258,26.04384 0.40216666,0.40216666 0 0 1 46.651684,26.154965 L 46.238934,26.567715 V 26.567715 A 2.2621875,2.2621875 0 0 0 46.037851,26.009444 0.32014583,0.32014583 0 0 0 45.773267,25.922131 C 45.749455,25.900965 45.672726,25.803069 45.537788,25.633736 45.402851,25.464402 45.326122,25.369152 45.302309,25.369152 A 0.13229166,0.13229166 0 0 0 45.201767,25.403548 1.1879792,1.1879792 0 0 0 45.270559,25.522611 L 45.405497,25.744861 A 0.06085417,0.06085417 0 0 1 45.336705,25.813652 0.22225,0.22225 0 0 0 45.506038,25.982986 L 45.471642,26.049131 45.569538,26.247569 A 6.0854166,6.0854166 0 0 0 42.230497,25.078111 Z M 42.230497,25.609923 A 5.5747708,5.5747708 0 0 1 45.757392,27.05984 L 44.722872,28.094361 A 4.1169166,4.1169166 0 0 0 42.238434,27.062486 Z M 42.230497,27.586361 A 3.603625,3.603625 0 0 1 44.236038,28.380111 0.2143125,0.2143125 0 0 0 44.167247,28.419798 0.26458333,0.26458333 0 0 1 44.098455,28.467423 Q 44.066705,28.483298 44.066705,28.546798 C 44.066705,28.602361 44.140788,28.623527 44.193705,28.631465 L 43.79683,29.009819 V 29.009819 A 0.65881249,0.65881249 0 0 0 43.646017,29.115652 C 43.553413,29.160631 43.503142,29.200319 43.489913,29.234715 43.476684,29.269111 43.471392,29.298215 43.458163,29.351131 L 43.325872,29.483423 A 0.206375,0.206375 0 0 1 43.267663,29.483423 C 43.222684,29.483423 43.153892,29.438444 43.061288,29.34584 42.968684,29.253236 42.899892,29.210902 42.854913,29.210902 A 0.20372916,0.20372916 0 0 0 42.701455,29.261173 0.09525,0.09525 0 0 1 42.582392,29.274402 C 42.537413,29.229423 42.582392,29.179152 42.735851,29.120944 42.889309,29.062736 42.984559,29.023048 43.029538,29.001881 A 0.64822916,0.64822916 0 0 0 43.294122,28.459486 C 43.294122,28.345715 43.249142,28.287506 43.156538,28.287506 L 43.053351,28.385402 A 0.85460416,0.85460416 0 0 0 42.81258,28.546798 L 42.640601,28.71084 A 0.46037499,0.46037499 0 0 0 42.434226,28.676444 H 42.233142 Z M 41.931517,29.904111 C 41.947392,29.938506 41.968559,29.957027 41.992372,29.957027 A 0.26458333,0.26458333 0 0 1 42.156413,30.009944 0.20108333,0.20108333 0 0 0 42.328392,30.031111 0.12964583,0.12964583 0 0 0 42.36808,30.094611 0.12435417,0.12435417 0 0 0 42.497726,30.166048 L 42.537413,30.208381 A 0.18520833,0.18520833 0 0 1 42.55858,30.245423 1.1191875,1.1191875 0 0 0 42.614142,30.364486 H 42.627372 V 30.39359 A 0.142875,0.142875 0 0 0 42.735851,30.409465 0.127,0.127 0 0 1 42.820517,30.409465 C 42.820517,30.433277 42.820517,30.45709 42.820517,30.483548 H 42.841684 A 0.47889583,0.47889583 0 0 0 42.841684,30.565569 0.81227082,0.81227082 0 0 1 42.857559,30.716381 V 30.782527 A 0.03175,0.03175 0 0 1 42.823163,30.816923 0.28045833,0.28045833 0 0 0 42.714684,31.015361 C 42.714684,31.06034 42.743788,31.076215 42.804642,31.065631 A 0.10583333,0.10583333 0 0 1 42.931642,31.115902 0.26458333,0.26458333 0 0 1 43.00308,31.31434 V 31.615965 A 0.111125,0.111125 0 0 0 43.053351,31.716506 C 43.087747,31.737673 43.103622,31.75884 43.103622,31.782652 A 1.1033125,1.1033125 0 0 1 43.069226,32.031361 0.42597916,0.42597916 0 0 1 42.968684,32.248319 Q 42.931642,32.280069 42.794059,32.248319 A 1.1165417,1.1165417 0 0 0 42.550642,32.213923 C 42.505663,32.213923 42.458038,32.282715 42.413059,32.415006 A 2.2198541,2.2198541 0 0 0 42.307226,32.719277 C 42.286059,32.809236 42.238434,32.854215 42.169642,32.854215 A 0.59266666,0.59266666 0 0 0 42.032059,32.87009 H 42.053226 L 41.939455,33.052652 41.902413,33.100277 A 1.6218958,1.6218958 0 0 1 40.881122,32.655777 L 41.058392,32.478506 A 1.8362083,1.8362083 0 0 0 41.38383,32.401777 L 41.442038,32.377965 C 41.621955,32.29859 41.60608,32.153069 41.706622,31.996965 41.76483,31.893777 41.934163,31.777361 41.799226,31.660944 41.950038,31.396361 41.248892,31.396361 41.124538,31.451923 41.000184,31.507486 41.071622,31.676819 40.994893,31.793236 40.955205,31.85409 40.889059,31.85409 40.836143,31.896423 A 0.88899999,0.88899999 0 0 0 40.571559,32.245673 V 32.245673 A 1.7197916,1.7197916 0 0 1 40.457788,31.98109 H 40.484247 C 40.471018,31.954631 40.465726,31.933465 40.484247,31.925527 H 40.518643 V 31.959923 C 40.605955,31.98109 40.664163,31.98109 40.68533,31.959923 A 1.254125,1.254125 0 0 0 40.735601,31.772069 2.2225,2.2225 0 0 1 40.920809,31.37784 0.15610416,0.15610416 0 0 1 40.841434,31.274652 C 40.841434,31.229673 40.804393,31.21909 40.762059,31.240256 A 0.11377083,0.11377083 0 0 0 40.698559,31.343444 0.1984375,0.1984375 0 0 1 40.635059,31.478381 0.1825625,0.1825625 0 0 1 40.502768,31.544527 0.08995833,0.08995833 0 0 0 40.402226,31.443986 0.19579166,0.19579166 0 0 0 40.267288,31.512777 C 40.222309,31.512777 40.116476,31.512777 39.947143,31.544527 A 0.66674999,0.66674999 0 0 1 39.626997,31.544527 C 39.582018,31.502194 39.626997,31.454569 39.79633,31.40959 A 0.46566666,0.46566666 0 0 1 39.936559,31.02859 0.52916666,0.52916666 0 0 0 40.140288,31.097381 L 40.206434,31.02859 H 40.24083 C 40.306976,31.02859 40.346663,31.086798 40.357247,31.200569 40.36783,31.31434 40.396934,31.369902 40.441913,31.369902 A 0.1905,0.1905 0 0 0 40.576851,31.301111 V 31.126486 C 40.62183,30.943923 40.656226,30.819569 40.677393,30.750777 V 30.650236 A 0.56356249,0.56356249 0 0 1 40.783226,30.483548 H 40.822913 A 0.3254375,0.3254375 0 0 1 40.979018,30.412111 0.52916666,0.52916666 0 0 0 41.045163,30.20309 C 41.113955,30.181923 41.230372,30.134298 41.399705,30.065506 41.569038,29.996715 41.664288,29.927923 41.664288,29.859131 V 29.840611 A 1.6245416,1.6245416 0 0 1 41.89183,29.808861 0.14816666,0.14816666 0 0 0 41.931517,29.893527 Z M 41.717205,21.601486 V 23.128131 A 8.0644999,8.0644999 0 0 0 36.451997,25.305652 L 35.364559,24.218215 A 9.5646874,9.5646874 0 0 1 41.717205,21.601486 Z M 35.004726,24.585986 36.092163,25.673423 A 8.0539166,8.0539166 0 0 0 33.906705,30.941277 H 32.36683 A 9.5832082,9.5832082 0 0 1 35.004726,24.585986 Z"
         id="path831" />
      <path
         style="stroke-width:0.26458332"
         inkscape:connector-curvature="0"
         d="M 71.951142,25.086048 72.011996,25.930069 A 2.5452916,2.5452916 0 0 1 74.107496,24.953756 C 74.88008,24.953756 75.454225,25.178652 75.83258,25.633736 76.210934,26.088819 76.401434,26.766152 76.412017,27.668381 V 32.377965 H 74.464684 V 27.716006 A 1.2567708,1.2567708 0 0 0 74.2001,26.816423 1.2038542,1.2038542 0 0 0 73.303163,26.535965 1.3387916,1.3387916 0 0 0 72.070205,27.237111 V 32.377965 H 70.122871 V 25.086048 Z"
         id="path833" />
      <path
         style="stroke-width:0.26458332"
         inkscape:connector-curvature="0"
         d="M 78.216475,23.188986 A 0.95514582,0.95514582 0 0 1 78.510163,22.469319 1.2620625,1.2620625 0 0 1 80.097663,22.469319 0.94720832,0.94720832 0 0 1 80.399288,23.188986 0.94985415,0.94985415 0 0 1 80.100309,23.91659 1.2461875,1.2461875 0 0 1 78.512809,23.91659 0.95249999,0.95249999 0 0 1 78.216475,23.188986 Z M 80.285517,32.367381 H 78.332892 V 25.086048 H 80.285517 Z"
         id="path835" />
      <path
         style="stroke-width:0.26458332"
         inkscape:connector-curvature="0"
         d="M 84.307184,23.294819 V 25.086048 H 85.553371 V 26.514798 H 84.307184 V 30.152819 A 0.88106249,0.88106249 0 0 0 84.460642,30.734902 0.79374999,0.79374999 0 0 0 85.053309,30.909527 3.0850416,3.0850416 0 0 0 85.627454,30.861902 V 32.338277 A 4.0322499,4.0322499 0 0 1 84.447413,32.512902 Q 82.399538,32.512902 82.35985,30.443861 V 26.514798 H 81.301517 V 25.086048 H 82.35985 V 23.294819 Z"
         id="path837" />
      <path
         style="stroke-width:0.26458332"
         inkscape:connector-curvature="0"
         d="M 75.03883,44.10959 A 2.1669375,2.1669375 0 0 1 74.843038,43.456069 2.3600833,2.3600833 0 0 1 72.990955,44.249819 2.5902708,2.5902708 0 0 1 71.2156,43.628048 1.9896666,1.9896666 0 0 1 70.509163,42.06436 2.0611041,2.0611041 0 0 1 71.369059,40.28636 C 71.943205,39.87361 72.768705,39.66459 73.853496,39.659298 H 74.747788 V 39.235965 A 1.1879792,1.1879792 0 0 0 74.483205,38.428985 1.0107083,1.0107083 0 0 0 73.665642,38.124715 1.1721042,1.1721042 0 0 0 72.893059,38.360194 0.79374999,0.79374999 0 0 0 72.628475,39.008423 H 70.681142 A 1.9605625,1.9605625 0 0 1 71.07008,37.836319 2.587625,2.587625 0 0 1 72.176038,36.989652 4.0375416,4.0375416 0 0 1 73.784705,36.682735 3.1935208,3.1935208 0 0 1 75.919892,37.360069 2.38125,2.38125 0 0 1 76.713642,39.265069 V 42.424194 A 3.4713333,3.4713333 0 0 0 77.002038,43.993173 V 44.10959 Z M 73.427517,42.768152 A 1.6642291,1.6642291 0 0 0 74.221267,42.575006 1.2514792,1.2514792 0 0 0 74.750434,42.04584 V 40.79436 H 74.02283 Q 72.56233,40.79436 72.46708,41.805069 V 41.91884 A 0.79374999,0.79374999 0 0 0 72.731663,42.519444 1.0027708,1.0027708 0 0 0 73.427517,42.768152 Z"
         id="path839" />
      <path
         style="stroke-width:0.26458332"
         inkscape:connector-curvature="0"
         d="M 80.211434,35.026444 V 36.817673 H 81.457621 V 38.246423 H 80.211434 V 41.884444 A 0.86783332,0.86783332 0 0 0 80.367538,42.463881 0.77522916,0.77522916 0 0 0 80.960204,42.638506 3.0903333,3.0903333 0 0 0 81.531704,42.593527 V 44.067256 A 4.0190208,4.0190208 0 0 1 80.354309,44.244527 Q 78.303788,44.244527 78.2641,42.175485 V 38.246423 H 77.205767 V 36.817673 H 78.2641 V 35.026444 Z"
         id="path841" />
      <path
         style="stroke-width:0.26458332"
         inkscape:connector-curvature="0"
         d="M 82.349267,34.931194 A 0.95514582,0.95514582 0 0 1 82.642954,34.211527 1.2620625,1.2620625 0 0 1 84.230454,34.211527 1.0292292,1.0292292 0 0 1 84.230454,35.658798 1.2461875,1.2461875 0 0 1 82.642954,35.658798 0.95249999,0.95249999 0 0 1 82.349267,34.931194 Z M 84.418309,44.10959 H 82.465684 V 36.817673 H 84.418309 Z"
         id="path843" />
      <path
         style="stroke-width:0.26458332"
         inkscape:connector-curvature="0"
         d="M 85.540142,40.386902 A 4.2836041,4.2836041 0 0 1 85.958184,38.455444 3.0453541,3.0453541 0 0 1 87.159392,37.132527 3.5189583,3.5189583 0 0 1 88.982371,36.682735 3.3231666,3.3231666 0 0 1 91.392725,37.58761 3.6168541,3.6168541 0 0 1 92.432538,40.037652 L 92.445767,40.537715 Q 92.445767,42.215173 91.509142,43.228527 A 3.6274375,3.6274375 0 0 1 86.482059,43.228527 Q 85.540142,42.215173 85.542788,40.479506 Z M 87.487475,40.527131 A 2.7252083,2.7252083 0 0 0 87.876413,42.114631 1.4049375,1.4049375 0 0 0 90.101559,42.114631 Q 90.498434,41.56959 90.498434,40.376319 A 2.7013958,2.7013958 0 0 0 90.101559,38.788819 1.2911667,1.2911667 0 0 0 88.982371,38.230548 1.2752917,1.2752917 0 0 0 87.876413,38.786173 C 87.617121,39.180402 87.487475,39.757194 87.487475,40.535069 Z"
         id="path845" />
      <path
         style="stroke-width:0.26458332"
         inkscape:connector-curvature="0"
         d="M 95.160392,36.817673 95.221246,37.659048 A 2.5452916,2.5452916 0 0 1 97.316746,36.682735 C 98.089329,36.682735 98.666121,36.910277 99.041829,37.362715 99.417538,37.815152 99.613329,38.495131 99.621267,39.400006 V 44.10959 H 97.673934 V 39.444985 A 1.2647083,1.2647083 0 0 0 97.40935,38.545402 1.2065,1.2065 0 0 0 96.509767,38.270235 1.3361458,1.3361458 0 0 0 95.276808,38.971381 V 44.10959 H 93.329475 V 36.817673 Z"
         id="path847" />
      <path
         style="stroke-width:0.26458332"
         inkscape:connector-curvature="0"
         d="M 104.86531,42.093465 A 0.62177083,0.62177083 0 0 0 104.51341,41.532548 3.9264166,3.9264166 0 0 0 103.37835,41.164777 Q 100.77485,40.61709 100.7775,38.95286 A 2.00025,2.00025 0 0 1 101.57125,37.33361 3.2464375,3.2464375 0 0 1 103.70114,36.682735 3.5110208,3.5110208 0 0 1 105.921,37.336256 2.0584583,2.0584583 0 0 1 106.75179,39.034881 H 104.80445 A 0.95249999,0.95249999 0 0 0 104.53987,38.344319 1.1403542,1.1403542 0 0 0 103.69585,38.079735 1.1668125,1.1668125 0 0 0 102.93385,38.301985 0.70643749,0.70643749 0 0 0 102.66927,38.868194 0.59531249,0.59531249 0 0 0 102.97618,39.39736 3.1115,3.1115 0 0 0 104.00806,39.741319 8.5460416,8.5460416 0 0 1 105.23573,40.069402 Q 106.77825,40.632965 106.77825,42.029965 A 1.9076458,1.9076458 0 0 1 105.92364,43.643923 3.7041666,3.7041666 0 0 1 103.70114,44.244527 3.8682083,3.8682083 0 0 1 102.07395,43.916444 2.714625,2.714625 0 0 1 100.95212,43.032735 2.0743333,2.0743333 0 0 1 100.54731,41.805069 H 102.39939 A 1.0186458,1.0186458 0 0 0 102.78304,42.598819 1.5213541,1.5213541 0 0 0 103.74083,42.863402 1.3943541,1.3943541 0 0 0 104.58485,42.651735 0.65616666,0.65616666 0 0 0 104.86531,42.093465 Z"
         id="path849" />
      <path
         style="stroke-width:0.26458332"
         inkscape:connector-curvature="0"
         d="M 93.001392,28.67909 Q 93.001392,26.972527 93.766038,25.964465 A 2.4791458,2.4791458 0 0 1 95.858892,24.953756 2.2277916,2.2277916 0 0 1 97.615725,25.747506 V 22.027465 H 99.570996 V 32.377965 H 97.811517 L 97.718913,31.602736 A 2.2992291,2.2992291 0 0 1 95.845663,32.512902 2.4765,2.4765 0 0 1 93.779267,31.499548 Q 93.001392,30.483548 93.001392,28.67909 Z M 94.948725,28.824611 A 2.8786666,2.8786666 0 0 0 95.305913,30.396236 1.1615208,1.1615208 0 0 0 96.343079,30.941277 1.2991042,1.2991042 0 0 0 97.615725,30.179277 V 27.297965 A 1.2805833,1.2805833 0 0 0 96.356308,26.535965 Q 94.948725,26.535965 94.948725,28.824611 Z"
         id="path851" />
      <path
         style="stroke-width:0.26458332"
         inkscape:connector-curvature="0"
         d="M 68.8026,22.567215 V 29.02834 Q 68.8026,30.639652 67.794538,31.576277 66.786476,32.512902 65.042871,32.512902 63.325726,32.512902 62.315017,31.602736 61.304309,30.692569 61.283142,29.102423 V 22.567215 H 63.304559 V 29.041569 Q 63.304559,30.004652 63.764934,30.446506 A 1.7832916,1.7832916 0 0 0 65.042871,30.888361 Q 66.749434,30.888361 66.775892,29.097131 V 22.567215 Z"
         id="path853" />
      <path
         style="stroke-width:0.26458332"
         inkscape:connector-curvature="0"
         d="M 69.35558,44.10959 H 67.334163 L 63.399809,37.653756 V 44.10959 H 61.367809 V 34.301485 H 63.389226 L 67.328871,40.767902 V 34.301485 H 69.344996 Z"
         id="path855" />
      <path
         style="stroke-width:0.26458332"
         inkscape:connector-curvature="0"
         d="M 89.493017,32.512902 A 3.2781875,3.2781875 0 0 1 86.974184,31.502194 3.6115625,3.6115625 0 0 1 86.032267,28.938381 V 28.673798 A 3.9687499,3.9687499 0 0 1 86.923913,26.001506 2.9659791,2.9659791 0 0 1 89.305163,24.956402 Q 90.776246,24.956402 91.593809,25.845402 92.411371,26.734402 92.408725,28.250465 V 29.308798 H 88.072204 L 88.058975,29.348486 A 1.87325,1.87325 0 0 0 88.540517,30.528527 1.4975416,1.4975416 0 0 0 89.702038,30.991548 3.7808958,3.7808958 0 0 0 90.784184,30.861902 5.0112083,5.0112083 0 0 0 91.728746,30.446506 L 92.257913,31.660944 A 3.6009791,3.6009791 0 0 1 91.0911,32.26684 4.9953333,4.9953333 0 0 1 89.493017,32.512902 Z M 89.318392,26.467173 A 1.0265833,1.0265833 0 0 0 88.45585,26.893152 2.1695833,2.1695833 0 0 0 88.064267,27.988527 L 88.085434,28.022923 H 90.495788 V 27.848298 A 1.571625,1.571625 0 0 0 90.207392,26.840236 1.0583333,1.0583333 0 0 0 89.318392,26.467173 Z"
         id="path857" />
    </g>
    <path
       inkscape:connector-curvature="0"
       id="path986"
       style="font-style:normal;font-variant:normal;font-weight:normal;font-stretch:normal;font-size:46.66666794px;line-height:1.25;font-family:Arial;-inkscape-font-specification:Arial;text-align:justify;letter-spacing:10px;word-spacing:0px;text-anchor:start;fill:#000000;fill-opacity:1;stroke:none;stroke-width:0.28290629"
       d="M 4.7381272,290.66977 V 289.56098 L 8.7413615,289.55453 V 293.06139 Q 7.8195227,293.79629 6.8396654,294.17018 5.8598082,294.53762 4.8283771,294.53762 3.4359491,294.53762 2.2949286,293.94455 1.1603584,293.34504 0.58017985,292.21691 -1.5394012e-6,291.08878 -1.5394012e-6,289.69635 -1.5394012e-6,288.31682 0.57373242,287.12423 1.153911,285.92519 2.236913,285.34501 3.3199123,284.76483 4.7316797,284.76483 5.7566634,284.76483 6.5818076,285.10005 7.4133965,285.42882 7.8839857,286.02189 8.3545748,286.61496 8.5995406,287.56903 L 7.471415,287.87846 Q 7.2586836,287.15646 6.9428074,286.74389 6.6269312,286.33132 6.040308,286.08635 5.453682,285.83494 4.7381272,285.83494 3.8807513,285.83494 3.2554492,286.09925 2.6301443,286.3571 2.2433576,286.78257 1.8630184,287.20803 1.650287,287.7173 1.2892873,288.59402 1.2892873,289.619 1.2892873,290.8825 1.7211975,291.73343 2.1595551,292.58436 2.991144,292.99693 3.8227329,293.4095 4.7574666,293.4095 5.569716,293.4095 6.3432893,293.10007 7.1168598,292.7842 7.5165413,292.42964 V 290.66977 Z" />
    <path
       inkscape:connector-curvature="0"
       id="path988"
       style="font-style:normal;font-variant:normal;font-weight:normal;font-stretch:normal;font-size:46.66666794px;line-height:1.25;font-family:Arial;-inkscape-font-specification:Arial;text-align:justify;letter-spacing:10px;word-spacing:0px;text-anchor:start;fill:#000000;fill-opacity:1;stroke:none;stroke-width:0.28290629"
       d="M 17.945947,292.17178 19.144983,292.32005 Q 18.861341,293.37082 18.094215,293.951 17.327089,294.53118 16.134501,294.53118 14.63248,294.53118 13.749321,293.60934 12.872605,292.68105 12.872605,291.01143 12.872605,289.28378 13.762213,288.32971 14.65182,287.37564 16.070035,287.37564 17.443126,287.37564 18.313394,288.31037 19.183662,289.2451 19.183662,290.94052 19.183662,291.04366 19.177214,291.24994 H 14.071641 Q 14.136104,292.37807 14.709838,292.97759 15.283569,293.57711 16.140945,293.57711 16.779142,293.57711 17.230392,293.24189 17.681644,292.90668 17.945947,292.17178 Z M 14.136104,290.29587 H 17.958839 Q 17.881484,289.43205 17.520481,289.00014 16.96609,288.32971 16.082927,288.32971 15.283569,288.32971 14.735622,288.86476 14.194123,289.39982 14.136104,290.29587 Z" />
    <path
       inkscape:connector-curvature="0"
       id="path990"
       style="font-style:normal;font-variant:normal;font-weight:normal;font-stretch:normal;font-size:46.66666794px;line-height:1.25;font-family:Arial;-inkscape-font-specification:Arial;text-align:justify;letter-spacing:10px;word-spacing:0px;text-anchor:start;fill:#000000;fill-opacity:1;stroke:none;stroke-width:0.28290629"
       d="M 23.005477,290.95341 Q 23.005477,289.05171 24.062692,288.13632 24.945852,287.37564 26.215801,287.37564 27.627569,287.37564 28.523623,288.30393 29.419678,289.22576 29.419678,290.85671 29.419678,292.17823 29.019997,292.93891 28.626765,293.69314 27.866087,294.11216 27.111853,294.53118 26.215801,294.53118 24.778244,294.53118 23.888637,293.60934 23.005477,292.6875 23.005477,290.95341 Z M 24.198065,290.95341 Q 24.198065,292.26848 24.771799,292.92602 25.345531,293.57711 26.215801,293.57711 27.079622,293.57711 27.653356,292.91957 28.227087,292.26203 28.227087,290.91473 28.227087,289.64478 27.646908,288.99369 27.073174,288.33616 26.215801,288.33616 25.345531,288.33616 24.771799,288.98725 24.198065,289.63834 24.198065,290.95341 Z" />
    <path
       inkscape:connector-curvature="0"
       id="path992"
       style="font-style:normal;font-variant:normal;font-weight:normal;font-stretch:normal;font-size:46.66666794px;line-height:1.25;font-family:Arial;-inkscape-font-specification:Arial;text-align:justify;letter-spacing:10px;word-spacing:0px;text-anchor:start;fill:#000000;fill-opacity:1;stroke:none;stroke-width:0.28290629"
       d="M 33.615382,297.00016 V 287.53035 H 34.672597 V 288.41996 Q 35.046492,287.8978 35.517081,287.63994 35.98767,287.37564 36.658099,287.37564 37.534814,287.37564 38.205242,287.82689 38.875671,288.27814 39.217334,289.10328 39.558994,289.92198 39.558994,290.90184 39.558994,291.9526 39.178655,292.79709 38.804761,293.63513 38.082761,294.08637 37.367206,294.53118 36.574296,294.53118 35.994118,294.53118 35.529973,294.28621 35.072276,294.04125 34.775742,293.66736 V 297.00016 Z M 34.666153,290.99209 Q 34.666153,292.31361 35.201205,292.94536 35.73626,293.57711 36.496938,293.57711 37.270512,293.57711 37.818456,292.92602 38.37285,292.26848 38.37285,290.89539 38.37285,289.58676 37.831351,288.93568 37.296296,288.28459 36.548509,288.28459 35.80717,288.28459 35.233436,288.9808 34.666153,289.67057 34.666153,290.99209 Z" />
    <path
       inkscape:connector-curvature="0"
       id="path994"
       style="font-style:normal;font-variant:normal;font-weight:normal;font-stretch:normal;font-size:46.66666794px;line-height:1.25;font-family:Arial;-inkscape-font-specification:Arial;text-align:justify;letter-spacing:10px;word-spacing:0px;text-anchor:start;fill:#000000;fill-opacity:1;stroke:none;stroke-width:0.28290629"
       d="M 43.361467,290.95341 Q 43.361467,289.05171 44.418682,288.13632 45.301845,287.37564 46.571791,287.37564 47.983559,287.37564 48.879614,288.30393 49.775668,289.22576 49.775668,290.85671 49.775668,292.17823 49.37599,292.93891 48.982758,293.69314 48.222077,294.11216 47.467846,294.53118 46.571791,294.53118 45.134237,294.53118 44.24463,293.60934 43.361467,292.6875 43.361467,290.95341 Z M 44.554059,290.95341 Q 44.554059,292.26848 45.12779,292.92602 45.701524,293.57711 46.571791,293.57711 47.435615,293.57711 48.009346,292.91957 48.58308,292.26203 48.58308,290.91473 48.58308,289.64478 48.002898,288.99369 47.429167,288.33616 46.571791,288.33616 45.701524,288.33616 45.12779,288.98725 44.554059,289.63834 44.554059,290.95341 Z" />
    <path
       inkscape:connector-curvature="0"
       id="path996"
       style="font-style:normal;font-variant:normal;font-weight:normal;font-stretch:normal;font-size:46.66666794px;line-height:1.25;font-family:Arial;-inkscape-font-specification:Arial;text-align:justify;letter-spacing:10px;word-spacing:0px;text-anchor:start;fill:#000000;fill-opacity:1;stroke:none;stroke-width:0.28290629"
       d="M 53.958483,294.37646 V 287.53035 H 55.002803 V 288.56823 Q 55.402482,287.83978 55.737698,287.60771 56.079358,287.37564 56.485484,287.37564 57.07211,287.37564 57.678073,287.74953 L 57.278394,288.82609 Q 56.852931,288.57468 56.427466,288.57468 56.047127,288.57468 55.744142,288.80675 55.441161,289.03237 55.312232,289.4385 55.11884,290.05736 55.11884,290.79225 V 294.37646 Z" />
    <path
       inkscape:connector-curvature="0"
       id="path998"
       style="font-style:normal;font-variant:normal;font-weight:normal;font-stretch:normal;font-size:46.66666794px;line-height:1.25;font-family:Arial;-inkscape-font-specification:Arial;text-align:justify;letter-spacing:10px;word-spacing:0px;text-anchor:start;fill:#000000;fill-opacity:1;stroke:none;stroke-width:0.28290629"
       d="M 63.743244,293.33859 63.910852,294.36357 Q 63.420923,294.46671 63.034137,294.46671 62.402387,294.46671 62.05428,294.26687 61.706172,294.06704 61.564351,293.74471 61.42253,293.41595 61.42253,292.37162 V 288.43285 H 60.571602 V 287.53035 H 61.42253 V 285.83494 L 62.576442,285.13873 V 287.53035 H 63.743244 V 288.43285 H 62.576442 V 292.43609 Q 62.576442,292.93247 62.634458,293.07429 62.698924,293.21611 62.834297,293.29991 62.976121,293.38371 63.233976,293.38371 63.427371,293.38371 63.743244,293.33859 Z" />
    <path
       inkscape:connector-curvature="0"
       id="path1000"
       style="font-style:normal;font-variant:normal;font-weight:normal;font-stretch:normal;font-size:46.66666794px;line-height:1.25;font-family:Arial;-inkscape-font-specification:Arial;text-align:justify;letter-spacing:10px;word-spacing:0px;text-anchor:start;fill:#000000;fill-opacity:1;stroke:none;stroke-width:0.28290629"
       d="M 72.167812,293.53198 Q 71.523167,294.07993 70.923649,294.30555 70.330576,294.53118 69.647255,294.53118 68.51913,294.53118 67.913164,293.98323 67.307201,293.42884 67.307201,292.57146 67.307201,292.06864 67.532825,291.65607 67.764896,291.23705 68.132343,290.98564 68.506238,290.73423 68.970379,290.6053 69.31204,290.51505 70.00181,290.43125 71.40713,290.26364 72.071114,290.03157 72.077562,289.79305 72.077562,289.72859 72.077562,289.01948 71.748793,288.72939 71.303988,288.33616 70.427273,288.33616 69.608576,288.33616 69.215345,288.62625 68.828558,288.90989 68.641611,289.63834 L 67.507041,289.48362 Q 67.661754,288.75518 68.016309,288.31037 68.370861,287.85912 69.04129,287.6206 69.711718,287.37564 70.594881,287.37564 71.471596,287.37564 72.019543,287.58192 72.56749,287.78821 72.825345,288.10409 73.083203,288.41352 73.186348,288.89055 73.244363,289.18709 73.244363,289.96066 V 291.5078 Q 73.244363,293.12586 73.315277,293.55777 73.392632,293.98323 73.611811,294.37646 H 72.399882 Q 72.219383,294.01546 72.167812,293.53198 Z M 72.071114,290.94052 Q 71.439365,291.19837 70.175863,291.37887 69.460308,291.48202 69.163774,291.61094 68.867237,291.73987 68.706077,291.99128 68.544916,292.23625 68.544916,292.53923 68.544916,293.00338 68.893021,293.3128 69.247576,293.62223 69.924452,293.62223 70.594881,293.62223 71.117041,293.33214 71.639204,293.03561 71.884167,292.52634 72.071114,292.1331 72.071114,291.36598 Z" />
    <path
       inkscape:connector-curvature="0"
       id="path1002"
       style="font-style:normal;font-variant:normal;font-weight:normal;font-stretch:normal;font-size:46.66666794px;line-height:1.25;font-family:Arial;-inkscape-font-specification:Arial;text-align:justify;letter-spacing:10px;word-spacing:0px;text-anchor:start;fill:#000000;fill-opacity:1;stroke:none;stroke-width:0.28290629"
       d="M 77.852644,294.37646 V 284.92599 H 79.013001 V 294.37646 Z" />
    <path
       style="fill:none;stroke:#aaaaaa;stroke-width:0.26308823px;stroke-linecap:butt;stroke-linejoin:miter;stroke-opacity:1"
       d="M -10e-7,282.65108 H 79.013"
       id="path940"
       inkscape:connector-curvature="0" />
  </g>
</svg>
